<?xml version="1.0" encoding="utf-8"?>
<!-- Generator: Adobe Illustrator 22.1.0, SVG Export Plug-In . SVG Version: 6.00 Build 0)  -->
<svg version="1.1" id="Calque_1" xmlns="http://www.w3.org/2000/svg" xmlns:xlink="http://www.w3.org/1999/xlink" x="0px" y="0px"
	 viewBox="0 0 134.5 112.2" style="enable-background:new 0 0 134.5 112.2;" xml:space="preserve">
<style type="text/css">
	.st0{opacity:0.12;}
</style>
<g class="st0">
	<path d="M41.6,23.6c0.2,0,0.3,0,0.4,0c3.8,0,7.6,0,11.5,0c0.3,0,0.4-0.1,0.5-0.4c0.7-1.6,1.2-3.3,2-4.9c1.4-2.8,3.6-4.8,6.6-5.8
		c0.9-0.3,1.9-0.5,2.9-0.5c8.7,0,17.4,0,26,0c2.6,0,4.9,1.1,6.8,2.8c1.8,1.6,2.9,3.5,3.7,5.7c0.3,0.9,0.7,1.8,1,2.6
		c0.1,0.3,0.2,0.4,0.5,0.4c1.8,0,3.6,0,5.4,0c3.8,0.1,7.2,1.4,10.1,3.9c2.8,2.4,4.5,5.4,5.3,8.9c0.2,1.1,0.3,2.3,0.3,3.4
		c0,16.1,0,32.2,0,48.3c0,4.5-1.6,8.3-4.7,11.5c-2.6,2.7-5.8,4.2-9.5,4.7c-0.7,0.1-1.5,0.1-2.2,0.1c-27.6,0-55.2,0-82.8,0
		c-4.7,0-8.7-1.7-12-5.1c-2.4-2.5-3.8-5.5-4.2-9c-0.1-0.8-0.1-1.6-0.1-2.4c0-16,0-32,0-47.9c0-7.3,4.7-13.3,11.2-15.4
		c0.3-0.1,0.4-0.2,0.4-0.5c0-1,0-2,0-2.9c0-1.2,1-2.1,2.2-2.2c0.1,0,0.2,0,0.3,0c5.3,0,10.5,0,15.8,0c1.5,0,2.5,1,2.5,2.5
		c0,0.6,0,1.2,0,1.7C41.6,23.3,41.6,23.4,41.6,23.6z M25.4,23.6c0,0.9,0,1.7,0,2.5c0,1.1-0.8,2-1.9,2.2c-2.3,0.4-4.3,1.4-6,3
		c-2.5,2.4-3.6,5.3-3.6,8.8c0,16,0,31.9,0,47.9c0,0.6,0,1.2,0.1,1.7c0.5,4,2.6,7,6.2,8.9c1.7,0.9,3.6,1.3,5.5,1.3
		c20.1,0,40.3,0,60.4,0c7.5,0,14.9,0,22.4,0c3.9,0,7.1-1.5,9.5-4.7c1.6-2.1,2.3-4.6,2.3-7.2c0-15.9,0-31.7,0-47.6c0-0.3,0-0.7,0-1
		c-0.1-2.9-1.1-5.4-3.1-7.5c-2.3-2.5-5.2-3.7-8.6-3.7c-2.2,0-4.4,0-6.7,0c-1.2,0-2-0.5-2.4-1.7c-0.6-1.5-1.2-3.1-1.8-4.6
		c-0.5-1.5-1.4-2.7-2.6-3.7c-1.1-0.9-2.3-1.6-3.7-1.6c-8.5,0-17,0-25.5,0c-0.3,0-0.6,0-0.9,0.1c-2.5,0.7-4.2,2.3-5.2,4.7
		c-0.7,1.7-1.3,3.4-2,5c-0.5,1.2-1.2,1.7-2.5,1.7c-3.5,0-7,0-10.5,0c-1.8,0-3.7,0-5.5,0c-1,0-2-0.7-2.1-1.8C37,25.6,37,24.8,37,24.1
		c0-0.2,0-0.3,0-0.5C33.1,23.6,29.3,23.6,25.4,23.6z"/>
	<path d="M108.7,62.9c0,16.6-13.6,30.3-30.4,30.1c-16.3-0.2-29.7-13.6-29.7-30.1c0-16.6,13.5-30.1,30.1-30
		C95.2,32.8,108.7,46.3,108.7,62.9z M78.6,37.4c-14.1,0-25.5,11.4-25.5,25.5c0,14.1,11.4,25.4,25.4,25.4c14.1,0,25.4-11.4,25.4-25.5
		C104.1,48.8,92.7,37.4,78.6,37.4z"/>
	<path d="M25.4,44.3c-2.6,0-4.6-2.1-4.6-4.6c0-2.6,2.1-4.6,4.6-4.6c2.5,0,4.6,2.1,4.6,4.6C30.1,42.3,28,44.4,25.4,44.3z"/>
</g>
</svg>
